<svg xmlns="http://www.w3.org/2000/svg" width="805" height="600"><rect width="805" height="600" x="0" y="0" fill="#FFFFFF" id="background"/><g transform="translate(10,10)" id="viz"><g id="links"><path d="M0,377.5562771296571C161.25,377.5562771296571,161.25,204.30972174334303,322.5,204.30972174334303" fill="none" stroke="#ccc"/><path d="M0,377.5562771296571C161.25,377.5562771296571,161.25,464.90741809468597,322.5,464.90741809468597" fill="none" stroke="#ccc"/><path d="M0,377.5562771296571C161.25,377.5562771296571,161.25,550.8028325159711,322.5,550.8028325159711" fill="none" stroke="#ccc"/><path d="M322.5,204.30972174334303C483.75,204.30972174334303,483.75,29.197167484028938,645,29.197167484028938" fill="none" stroke="#ccc"/><path d="M322.5,204.30972174334303C483.75,204.30972174334303,483.75,89.5019628086491,645,89.5019628086491" fill="none" stroke="#ccc"/><path d="M322.5,204.30972174334303C483.75,204.30972174334303,483.75,149.8067581332693,645,149.8067581332693" fill="none" stroke="#ccc"/><path d="M322.5,204.30972174334303C483.75,204.30972174334303,483.75,210.1115534578895,645,210.1115534578895" fill="none" stroke="#ccc"/><path d="M322.5,204.30972174334303C483.75,204.30972174334303,483.75,268.0956160966911,645,268.0956160966911" fill="none" stroke="#ccc"/><path d="M322.5,204.30972174334303C483.75,204.30972174334303,483.75,323.75894604967414,645,323.75894604967414" fill="none" stroke="#ccc"/><path d="M322.5,204.30972174334303C483.75,204.30972174334303,483.75,379.42227600265716,645,379.42227600265716" fill="none" stroke="#ccc"/><path d="M322.5,464.90741809468597C483.75,464.90741809468597,483.75,436.08067953691733,645,436.08067953691733" fill="none" stroke="#ccc"/><path d="M322.5,464.90741809468597C483.75,464.90741809468597,483.75,493.73415665245466,645,493.73415665245466" fill="none" stroke="#ccc"/><path d="M322.5,550.8028325159711C483.75,550.8028325159711,483.75,550.8028325159711,645,550.8028325159711" fill="none" stroke="#ccc"/></g><g id="nodes"><g transform="translate(0,377.5562771296571)"><circle fill="#ccc" r="5"/><text text-anchor="end" dominant-baseline="text-before-edge" transform="translate(0,0)"><tspan x="-8" y="0" dy="0" style="font-family: Arial, sans-serif; font-size: 10px; fill: black; font-weight: normal;"/></text></g><g id="India" transform="translate(322.5,204.30972174334303)"><circle fill="#1f77b4" r="5"/><text text-anchor="end" dominant-baseline="text-before-edge" transform="translate(0,-5.6666669845581055)"><tspan x="-8" y="0" dy="0" style="font-family: Arial, sans-serif; font-size: 10px; fill: black; font-weight: normal;">India</tspan></text></g><g id="Russia" transform="translate(322.5,464.90741809468597)"><circle fill="#2ca02c" r="5"/><text text-anchor="end" dominant-baseline="text-before-edge" transform="translate(0,-5.6666669845581055)"><tspan x="-8" y="0" dy="0" style="font-family: Arial, sans-serif; font-size: 10px; fill: black; font-weight: normal;">Russia</tspan></text></g><g id="People's Republic of China" transform="translate(322.5,550.8028325159711)"><circle fill="#ff7f0e" r="5"/><text text-anchor="end" dominant-baseline="text-before-edge" transform="translate(0,-5.6666669845581055)"><tspan x="-8" y="0" dy="0" style="font-family: Arial, sans-serif; font-size: 10px; fill: black; font-weight: normal;">People's Republic of China</tspan></text></g><g id="Prayagraj Airport" transform="translate(645,29.197167484028938)"><circle fill="#1f77b4" r="10"/><text text-anchor="start" dominant-baseline="text-before-edge" transform="translate(0,-11.666666984558105)"><tspan x="12" y="0" dy="0" style="font-family: Arial, sans-serif; font-size: 10px; fill: black; font-weight: bold;">199812341</tspan><tspan x="12" y="0" dy="12" style="font-family: Arial, sans-serif; font-size: 10px; fill: black; font-weight: normal;">Prayagraj Airport</tspan></text></g><g id="Raebareli Airport" transform="translate(645,89.5019628086491)"><circle fill="#1f77b4" r="10"/><text text-anchor="start" dominant-baseline="text-before-edge" transform="translate(0,-11.666666984558105)"><tspan x="12" y="0" dy="0" style="font-family: Arial, sans-serif; font-size: 10px; fill: black; font-weight: bold;">199812341</tspan><tspan x="12" y="0" dy="12" style="font-family: Arial, sans-serif; font-size: 10px; fill: black; font-weight: normal;">Raebareli Airport</tspan></text></g><g id="Muirpur Airport" transform="translate(645,149.8067581332693)"><circle fill="#1f77b4" r="10"/><text text-anchor="start" dominant-baseline="text-before-edge" transform="translate(0,-11.666666984558105)"><tspan x="12" y="0" dy="0" style="font-family: Arial, sans-serif; font-size: 10px; fill: black; font-weight: bold;">199812341</tspan><tspan x="12" y="0" dy="12" style="font-family: Arial, sans-serif; font-size: 10px; fill: black; font-weight: normal;">Muirpur Airport</tspan></text></g><g id="Lalitpur Airport" transform="translate(645,210.1115534578895)"><circle fill="#1f77b4" r="10"/><text text-anchor="start" dominant-baseline="text-before-edge" transform="translate(0,-11.666666984558105)"><tspan x="12" y="0" dy="0" style="font-family: Arial, sans-serif; font-size: 10px; fill: black; font-weight: bold;">199812341</tspan><tspan x="12" y="0" dy="12" style="font-family: Arial, sans-serif; font-size: 10px; fill: black; font-weight: normal;">Lalitpur Airport</tspan></text></g><g id="Shri Guru Gobind Singh Ji Airport" transform="translate(645,268.0956160966911)"><circle fill="#1f77b4" r="7.499283633239996"/><text text-anchor="start" dominant-baseline="text-before-edge" transform="translate(0,-11.666666984558105)"><tspan x="9.499283633239996" y="0" dy="0" style="font-family: Arial, sans-serif; font-size: 10px; fill: black; font-weight: bold;">112372972</tspan><tspan x="9.499283633239996" y="0" dy="12" style="font-family: Arial, sans-serif; font-size: 10px; fill: black; font-weight: normal;">Shri Guru Gobind Singh Ji Airport</tspan></text></g><g id="Kolhapur Airport" transform="translate(645,323.75894604967414)"><circle fill="#1f77b4" r="7.499283633239996"/><text text-anchor="start" dominant-baseline="text-before-edge" transform="translate(0,-11.666666984558105)"><tspan x="9.499283633239996" y="0" dy="0" style="font-family: Arial, sans-serif; font-size: 10px; fill: black; font-weight: bold;">112372972</tspan><tspan x="9.499283633239996" y="0" dy="12" style="font-family: Arial, sans-serif; font-size: 10px; fill: black; font-weight: normal;">Kolhapur Airport</tspan></text></g><g id="Dr. Babasaheb Ambedkar International Airport" transform="translate(645,379.42227600265716)"><circle fill="#1f77b4" r="7.499283633239996"/><text text-anchor="start" dominant-baseline="text-before-edge" transform="translate(0,-11.666666984558105)"><tspan x="9.499283633239996" y="0" dy="0" style="font-family: Arial, sans-serif; font-size: 10px; fill: black; font-weight: bold;">112372972</tspan><tspan x="9.499283633239996" y="0" dy="12" style="font-family: Arial, sans-serif; font-size: 10px; fill: black; font-weight: normal;">Dr. Babasaheb Ambedkar International Airport</tspan></text></g><g id="Nizhneudinsk Airport" transform="translate(645,436.08067953691733)"><circle fill="#2ca02c" r="8.571529827744106"/><text text-anchor="start" dominant-baseline="text-before-edge" transform="translate(0,-11.666666984558105)"><tspan x="10.571529827744106" y="0" dy="0" style="font-family: Arial, sans-serif; font-size: 10px; fill: black; font-weight: bold;">146804372</tspan><tspan x="10.571529827744106" y="0" dy="12" style="font-family: Arial, sans-serif; font-size: 10px; fill: black; font-weight: normal;">Nizhneudinsk Airport</tspan></text></g><g id="Chokurdakh Airport" transform="translate(645,493.73415665245466)"><circle fill="#2ca02c" r="8.571529827744106"/><text text-anchor="start" dominant-baseline="text-before-edge" transform="translate(0,-11.666666984558105)"><tspan x="10.571529827744106" y="0" dy="0" style="font-family: Arial, sans-serif; font-size: 10px; fill: black; font-weight: bold;">146804372</tspan><tspan x="10.571529827744106" y="0" dy="12" style="font-family: Arial, sans-serif; font-size: 10px; fill: black; font-weight: normal;">Chokurdakh Airport</tspan></text></g><g id="Zhanjiang Wuchuan Airport" transform="translate(645,550.8028325159711)"><circle fill="#ff7f0e" r="7.941374501727121"/><text text-anchor="start" dominant-baseline="text-before-edge" transform="translate(0,-11.666666984558105)"><tspan x="9.941374501727122" y="0" dy="0" style="font-family: Arial, sans-serif; font-size: 10px; fill: black; font-weight: bold;">126012510</tspan><tspan x="9.941374501727122" y="0" dy="12" style="font-family: Arial, sans-serif; font-size: 10px; fill: black; font-weight: normal;">Zhanjiang Wuchuan Airport</tspan></text></g></g></g></svg>